<?xml version="1.0" encoding="UTF-8" standalone="no"?>
<svg version="1.2" viewBox="-150 0 300 300" id="svg16477" xmlns:xlink="http://www.w3.org/1999/xlink"
    xmlns="http://www.w3.org/2000/svg" xmlns:svg="http://www.w3.org/2000/svg">
    <defs id="defs16462">
        <mask id="half">
            <rect x="-150" width="300" height="300" fill="#ccc" id="rect16457" />
            <rect width="300" height="300" fill="#fff" id="rect16459" />
        </mask>
    </defs>
    <rect x="-50%" width="100%" height="100%" fill="#384a9a" id="rect16464" />
    <g mask="url(#half)" id="g16475">
        <path d="M-150,300 l120,-50 h60 l120,50" fill="#717170" id="path14" />
        <g id="face">
            <path d="m0 80 85,5 5,60 0,40 -20,70 -60,30 -10,2" fill="#f8cba1" id="path16466" />
            <path d="m30 160v20" stroke="#000" stroke-width="10" id="path16468" />
        </g>
        <use transform="scale(-1,1)" xlink:href="#face" id="use16471" />
        <path
            d="m -96.397578,78.428579 26.68392,-16.065692 46.939789,-8.993399 59.303977,-2.803798 33.370944,11.484367 31.884418,11.698271 -0.87953,25.053999 -10.03223,66.873463 -14.030812,-78.220634 -154.429306,0 -6.25068,41.121964 -6.504177,36.20906 -4.773445,-51.32069"
            fill="#432a11" id="path20" />
    </g>
</svg>