<?xml version="1.0" encoding="UTF-8" standalone="no"?>
<svg version="1.2" viewBox="-150 0 300 300" id="svg16477" xmlns:xlink="http://www.w3.org/1999/xlink"
    xmlns="http://www.w3.org/2000/svg" xmlns:svg="http://www.w3.org/2000/svg">
    <defs id="defs16462">
        <mask id="half">
            <rect x="-150" width="300" height="300" fill="#ccc" id="rect16457" />
            <rect width="300" height="300" fill="#fff" id="rect16459" />
        </mask>
    </defs>
    <rect x="-50%" width="100%" height="100%" fill="#535735" id="rect16464" />
    <g mask="url(#half)" id="g16475">
        <path d="M-150,300 l120,-50 h60 l120,50" fill="#513531" />
        <g id="face">
            <path d="m0 80 l40,5 l30,15 l10,25 5,30 0,40 -10,50 -60,40 -15,2" fill="#f8cba1" id="path16466" />
            <path d="M0 105 l30,3 M0,115 l30,3" stroke="#f5bd88" stroke-width="3" />
            <path d="m30 160v20" stroke="#000" stroke-width="10" />
            <path d="M20 155 h20 l5,5 v20 l-5,5 h-20 l-5,-5, v-19 z M20 155 m-5,5 h-10 l-5,-5 M45, 160 h40"
                stroke="#ccc" fill="none" stroke-width="3" />
        </g>
        <use transform="scale(-1,1)" xlink:href="#face" id="use16471" />
    </g>
</svg>